<?xml version="1.0" encoding="utf-8" standalone="no"?>
<!DOCTYPE svg PUBLIC "-//W3C//DTD SVG 1.1//EN"
  "http://www.w3.org/Graphics/SVG/1.1/DTD/svg11.dtd">
<svg xmlns:xlink="http://www.w3.org/1999/xlink" width="709.2pt" height="567.972877pt" viewBox="0 0 709.2 567.972877" xmlns="http://www.w3.org/2000/svg" version="1.1">
 <metadata>
  <rdf:RDF xmlns:dc="http://purl.org/dc/elements/1.1/" xmlns:cc="http://creativecommons.org/ns#" xmlns:rdf="http://www.w3.org/1999/02/22-rdf-syntax-ns#">
   <cc:Work>
    <dc:type rdf:resource="http://purl.org/dc/dcmitype/StillImage"/>
    <dc:date>2026-09-16T11:33:51.127811</dc:date>
    <dc:format>image/svg+xml</dc:format>
    <dc:creator>
     <cc:Agent>
      <dc:title>Matplotlib v3.10.1, https://matplotlib.org/</dc:title>
     </cc:Agent>
    </dc:creator>
   </cc:Work>
  </rdf:RDF>
 </metadata>
 <defs>
  <style type="text/css">*{stroke-linejoin: round; stroke-linecap: butt}</style>
 </defs>
 <g id="figure_1">
  <g id="patch_1">
   <path d="M 0 567.972877 
L 709.2 567.972877 
L 709.2 0 
L 0 0 
z
" style="fill: #ffffff"/>
  </g>
  <g id="axes_1">
   <g id="patch_2">
    <path d="M 79.2 401.478221 
L 702 401.478221 
L 702 9.516279 
L 79.2 9.516279 
z
" style="fill: #ffffff"/>
   </g>
   <g id="matplotlib.axis_1">
    <g id="xtick_1">
     <g id="line2d_1">
      <defs>
       <path id="md153f79023" d="M 0 0 
L 0 3.5 
" style="stroke: #000000; stroke-width: 0.8"/>
      </defs>
      <g>
       <use xlink:href="#md153f79023" x="188.67575" y="401.478221" style="stroke: #000000; stroke-width: 0.8"/>
      </g>
     </g>
    </g>
    <g id="xtick_2">
     <g id="line2d_2">
      <g>
       <use xlink:href="#md153f79023" x="309.405573" y="401.478221" style="stroke: #000000; stroke-width: 0.8"/>
      </g>
     </g>
    </g>
    <g id="xtick_3">
     <g id="line2d_3">
      <g>
       <use xlink:href="#md153f79023" x="430.135395" y="401.478221" style="stroke: #000000; stroke-width: 0.8"/>
      </g>
     </g>
    </g>
    <g id="xtick_4">
     <g id="line2d_4">
      <g>
       <use xlink:href="#md153f79023" x="550.865217" y="401.478221" style="stroke: #000000; stroke-width: 0.8"/>
      </g>
     </g>
    </g>
    <g id="xtick_5">
     <g id="line2d_5">
      <g>
       <use xlink:href="#md153f79023" x="671.595039" y="401.478221" style="stroke: #000000; stroke-width: 0.8"/>
      </g>
     </g>
    </g>
   </g>
   <g id="matplotlib.axis_2">
    <g id="ytick_1">
     <g id="line2d_6">
      <defs>
       <path id="m61776dbc44" d="M 0 0 
L -3.5 0 
" style="stroke: #000000; stroke-width: 0.8"/>
      </defs>
      <g>
       <use xlink:href="#m61776dbc44" x="79.2" y="340.499915" style="stroke: #000000; stroke-width: 0.8"/>
      </g>
     </g>
     <g id="text_1">
      <!-- 0.5 -->
      <g transform="translate(49.935625 345.818822) scale(0.14 -0.14)">
       <defs>
        <path id="DejaVuSans-30" d="M 2034 4250 
Q 1547 4250 1301 3770 
Q 1056 3291 1056 2328 
Q 1056 1369 1301 889 
Q 1547 409 2034 409 
Q 2525 409 2770 889 
Q 3016 1369 3016 2328 
Q 3016 3291 2770 3770 
Q 2525 4250 2034 4250 
z
M 2034 4750 
Q 2819 4750 3233 4129 
Q 3647 3509 3647 2328 
Q 3647 1150 3233 529 
Q 2819 -91 2034 -91 
Q 1250 -91 836 529 
Q 422 1150 422 2328 
Q 422 3509 836 4129 
Q 1250 4750 2034 4750 
z
" transform="scale(0.015625)"/>
        <path id="DejaVuSans-2e" d="M 684 794 
L 1344 794 
L 1344 0 
L 684 0 
L 684 794 
z
" transform="scale(0.015625)"/>
        <path id="DejaVuSans-35" d="M 691 4666 
L 3169 4666 
L 3169 4134 
L 1269 4134 
L 1269 2991 
Q 1406 3038 1543 3061 
Q 1681 3084 1819 3084 
Q 2600 3084 3056 2656 
Q 3513 2228 3513 1497 
Q 3513 744 3044 326 
Q 2575 -91 1722 -91 
Q 1428 -91 1123 -41 
Q 819 9 494 109 
L 494 744 
Q 775 591 1075 516 
Q 1375 441 1709 441 
Q 2250 441 2565 725 
Q 2881 1009 2881 1497 
Q 2881 1984 2565 2268 
Q 2250 2553 1709 2553 
Q 1456 2553 1204 2497 
Q 953 2441 691 2322 
L 691 4666 
z
" transform="scale(0.015625)"/>
       </defs>
       <use xlink:href="#DejaVuSans-30"/>
       <use xlink:href="#DejaVuSans-2e" transform="translate(63.623047 0)"/>
       <use xlink:href="#DejaVuSans-35" transform="translate(95.410156 0)"/>
      </g>
     </g>
    </g>
    <g id="ytick_2">
     <g id="line2d_7">
      <g>
       <use xlink:href="#m61776dbc44" x="79.2" y="274.903714" style="stroke: #000000; stroke-width: 0.8"/>
      </g>
     </g>
     <g id="text_2">
      <!-- 1.0 -->
      <g transform="translate(49.935625 280.22262) scale(0.14 -0.14)">
       <defs>
        <path id="DejaVuSans-31" d="M 794 531 
L 1825 531 
L 1825 4091 
L 703 3866 
L 703 4441 
L 1819 4666 
L 2450 4666 
L 2450 531 
L 3481 531 
L 3481 0 
L 794 0 
L 794 531 
z
" transform="scale(0.015625)"/>
       </defs>
       <use xlink:href="#DejaVuSans-31"/>
       <use xlink:href="#DejaVuSans-2e" transform="translate(63.623047 0)"/>
       <use xlink:href="#DejaVuSans-30" transform="translate(95.410156 0)"/>
      </g>
     </g>
    </g>
    <g id="ytick_3">
     <g id="line2d_8">
      <g>
       <use xlink:href="#m61776dbc44" x="79.2" y="209.307512" style="stroke: #000000; stroke-width: 0.8"/>
      </g>
     </g>
     <g id="text_3">
      <!-- 1.5 -->
      <g transform="translate(49.935625 214.626418) scale(0.14 -0.14)">
       <use xlink:href="#DejaVuSans-31"/>
       <use xlink:href="#DejaVuSans-2e" transform="translate(63.623047 0)"/>
       <use xlink:href="#DejaVuSans-35" transform="translate(95.410156 0)"/>
      </g>
     </g>
    </g>
    <g id="ytick_4">
     <g id="line2d_9">
      <g>
       <use xlink:href="#m61776dbc44" x="79.2" y="143.71131" style="stroke: #000000; stroke-width: 0.8"/>
      </g>
     </g>
     <g id="text_4">
      <!-- 2.0 -->
      <g transform="translate(49.935625 149.030216) scale(0.14 -0.14)">
       <defs>
        <path id="DejaVuSans-32" d="M 1228 531 
L 3431 531 
L 3431 0 
L 469 0 
L 469 531 
Q 828 903 1448 1529 
Q 2069 2156 2228 2338 
Q 2531 2678 2651 2914 
Q 2772 3150 2772 3378 
Q 2772 3750 2511 3984 
Q 2250 4219 1831 4219 
Q 1534 4219 1204 4116 
Q 875 4013 500 3803 
L 500 4441 
Q 881 4594 1212 4672 
Q 1544 4750 1819 4750 
Q 2544 4750 2975 4387 
Q 3406 4025 3406 3419 
Q 3406 3131 3298 2873 
Q 3191 2616 2906 2266 
Q 2828 2175 2409 1742 
Q 1991 1309 1228 531 
z
" transform="scale(0.015625)"/>
       </defs>
       <use xlink:href="#DejaVuSans-32"/>
       <use xlink:href="#DejaVuSans-2e" transform="translate(63.623047 0)"/>
       <use xlink:href="#DejaVuSans-30" transform="translate(95.410156 0)"/>
      </g>
     </g>
    </g>
    <g id="ytick_5">
     <g id="line2d_10">
      <g>
       <use xlink:href="#m61776dbc44" x="79.2" y="78.115108" style="stroke: #000000; stroke-width: 0.8"/>
      </g>
     </g>
     <g id="text_5">
      <!-- 2.5 -->
      <g transform="translate(49.935625 83.434014) scale(0.14 -0.14)">
       <use xlink:href="#DejaVuSans-32"/>
       <use xlink:href="#DejaVuSans-2e" transform="translate(63.623047 0)"/>
       <use xlink:href="#DejaVuSans-35" transform="translate(95.410156 0)"/>
      </g>
     </g>
    </g>
    <g id="ytick_6">
     <g id="line2d_11">
      <g>
       <use xlink:href="#m61776dbc44" x="79.2" y="12.518906" style="stroke: #000000; stroke-width: 0.8"/>
      </g>
     </g>
     <g id="text_6">
      <!-- 3.0 -->
      <g transform="translate(49.935625 17.837813) scale(0.14 -0.14)">
       <defs>
        <path id="DejaVuSans-33" d="M 2597 2516 
Q 3050 2419 3304 2112 
Q 3559 1806 3559 1356 
Q 3559 666 3084 287 
Q 2609 -91 1734 -91 
Q 1441 -91 1130 -33 
Q 819 25 488 141 
L 488 750 
Q 750 597 1062 519 
Q 1375 441 1716 441 
Q 2309 441 2620 675 
Q 2931 909 2931 1356 
Q 2931 1769 2642 2001 
Q 2353 2234 1838 2234 
L 1294 2234 
L 1294 2753 
L 1863 2753 
Q 2328 2753 2575 2939 
Q 2822 3125 2822 3475 
Q 2822 3834 2567 4026 
Q 2313 4219 1838 4219 
Q 1578 4219 1281 4162 
Q 984 4106 628 3988 
L 628 4550 
Q 988 4650 1302 4700 
Q 1616 4750 1894 4750 
Q 2613 4750 3031 4423 
Q 3450 4097 3450 3541 
Q 3450 3153 3228 2886 
Q 3006 2619 2597 2516 
z
" transform="scale(0.015625)"/>
       </defs>
       <use xlink:href="#DejaVuSans-33"/>
       <use xlink:href="#DejaVuSans-2e" transform="translate(63.623047 0)"/>
       <use xlink:href="#DejaVuSans-30" transform="translate(95.410156 0)"/>
      </g>
     </g>
    </g>
   </g>
   <g id="LineCollection_1">
    <path d="M 107.695015 371.852566 
L 107.695015 371.852566 
" clip-path="url(#pb8a8e7a16a)" style="fill: none; stroke: #0077b6; stroke-width: 3"/>
    <path d="M 119.280249 382.378808 
L 119.280249 382.378808 
" clip-path="url(#pb8a8e7a16a)" style="fill: none; stroke: #0077b6; stroke-width: 3"/>
    <path d="M 131.640568 378.575148 
L 131.640568 378.575148 
" clip-path="url(#pb8a8e7a16a)" style="fill: none; stroke: #0077b6; stroke-width: 3"/>
    <path d="M 141.743239 364.413395 
L 141.743239 364.413395 
" clip-path="url(#pb8a8e7a16a)" style="fill: none; stroke: #0077b6; stroke-width: 3"/>
    <path d="M 207.693112 349.49176 
L 207.693112 349.49176 
" clip-path="url(#pb8a8e7a16a)" style="fill: none; stroke: #0077b6; stroke-width: 3"/>
    <path d="M 277.308342 307.871017 
L 277.308342 307.871017 
" clip-path="url(#pb8a8e7a16a)" style="fill: none; stroke: #0077b6; stroke-width: 3"/>
    <path d="M 345.117454 193.009529 
L 345.117454 193.009529 
" clip-path="url(#pb8a8e7a16a)" style="fill: none; stroke: #0077b6; stroke-width: 3"/>
    <path d="M 390.85474 151.134724 
L 390.85474 151.134724 
" clip-path="url(#pb8a8e7a16a)" style="fill: none; stroke: #0077b6; stroke-width: 3"/>
    <path d="M 454.918813 64.034645 
L 454.918813 64.034645 
" clip-path="url(#pb8a8e7a16a)" style="fill: none; stroke: #0077b6; stroke-width: 3"/>
    <path d="M 488.703846 27.332731 
L 488.703846 27.332731 
" clip-path="url(#pb8a8e7a16a)" style="fill: none; stroke: #0077b6; stroke-width: 3"/>
   </g>
   <g id="line2d_12">
    <defs>
     <path id="m53c066049e" d="M 3 0 
L -3 -0 
" style="stroke: #0077b6; stroke-width: 1.2"/>
    </defs>
    <g clip-path="url(#pb8a8e7a16a)">
     <use xlink:href="#m53c066049e" x="107.695015" y="371.852566" style="fill: #0077b6; stroke: #0077b6; stroke-width: 1.2"/>
     <use xlink:href="#m53c066049e" x="119.280249" y="382.378808" style="fill: #0077b6; stroke: #0077b6; stroke-width: 1.2"/>
     <use xlink:href="#m53c066049e" x="131.640568" y="378.575148" style="fill: #0077b6; stroke: #0077b6; stroke-width: 1.2"/>
     <use xlink:href="#m53c066049e" x="141.743239" y="364.413395" style="fill: #0077b6; stroke: #0077b6; stroke-width: 1.2"/>
     <use xlink:href="#m53c066049e" x="207.693112" y="349.49176" style="fill: #0077b6; stroke: #0077b6; stroke-width: 1.2"/>
     <use xlink:href="#m53c066049e" x="277.308342" y="307.871017" style="fill: #0077b6; stroke: #0077b6; stroke-width: 1.2"/>
     <use xlink:href="#m53c066049e" x="345.117454" y="193.009529" style="fill: #0077b6; stroke: #0077b6; stroke-width: 1.2"/>
     <use xlink:href="#m53c066049e" x="390.85474" y="151.134724" style="fill: #0077b6; stroke: #0077b6; stroke-width: 1.2"/>
     <use xlink:href="#m53c066049e" x="454.918813" y="64.034645" style="fill: #0077b6; stroke: #0077b6; stroke-width: 1.2"/>
     <use xlink:href="#m53c066049e" x="488.703846" y="27.332731" style="fill: #0077b6; stroke: #0077b6; stroke-width: 1.2"/>
    </g>
   </g>
   <g id="line2d_13">
    <g clip-path="url(#pb8a8e7a16a)">
     <use xlink:href="#m53c066049e" x="107.695015" y="371.852566" style="fill: #0077b6; stroke: #0077b6; stroke-width: 1.2"/>
     <use xlink:href="#m53c066049e" x="119.280249" y="382.378808" style="fill: #0077b6; stroke: #0077b6; stroke-width: 1.2"/>
     <use xlink:href="#m53c066049e" x="131.640568" y="378.575148" style="fill: #0077b6; stroke: #0077b6; stroke-width: 1.2"/>
     <use xlink:href="#m53c066049e" x="141.743239" y="364.413395" style="fill: #0077b6; stroke: #0077b6; stroke-width: 1.2"/>
     <use xlink:href="#m53c066049e" x="207.693112" y="349.49176" style="fill: #0077b6; stroke: #0077b6; stroke-width: 1.2"/>
     <use xlink:href="#m53c066049e" x="277.308342" y="307.871017" style="fill: #0077b6; stroke: #0077b6; stroke-width: 1.2"/>
     <use xlink:href="#m53c066049e" x="345.117454" y="193.009529" style="fill: #0077b6; stroke: #0077b6; stroke-width: 1.2"/>
     <use xlink:href="#m53c066049e" x="390.85474" y="151.134724" style="fill: #0077b6; stroke: #0077b6; stroke-width: 1.2"/>
     <use xlink:href="#m53c066049e" x="454.918813" y="64.034645" style="fill: #0077b6; stroke: #0077b6; stroke-width: 1.2"/>
     <use xlink:href="#m53c066049e" x="488.703846" y="27.332731" style="fill: #0077b6; stroke: #0077b6; stroke-width: 1.2"/>
    </g>
   </g>
   <g id="LineCollection_2">
    <path d="M 673.690909 164.887991 
L 673.690909 164.887991 
" clip-path="url(#pb8a8e7a16a)" style="fill: none; stroke: #c1121f; stroke-width: 2"/>
   </g>
   <g id="line2d_14">
    <defs>
     <path id="mf012ac0b50" d="M 3 0 
L -3 -0 
" style="stroke: #c1121f; stroke-width: 1.2"/>
    </defs>
    <g clip-path="url(#pb8a8e7a16a)">
     <use xlink:href="#mf012ac0b50" x="673.690909" y="164.887991" style="fill: #c1121f; stroke: #c1121f; stroke-width: 1.2"/>
    </g>
   </g>
   <g id="line2d_15">
    <g clip-path="url(#pb8a8e7a16a)">
     <use xlink:href="#mf012ac0b50" x="673.690909" y="164.887991" style="fill: #c1121f; stroke: #c1121f; stroke-width: 1.2"/>
    </g>
   </g>
   <g id="LineCollection_3">
    <path d="M 673.690909 167.188343 
L 673.690909 167.188343 
" clip-path="url(#pb8a8e7a16a)" style="fill: none; stroke: #5a189a; stroke-width: 2"/>
   </g>
   <g id="line2d_16">
    <defs>
     <path id="m0a326d907b" d="M 3 0 
L -3 -0 
" style="stroke: #5a189a; stroke-width: 1.2"/>
    </defs>
    <g clip-path="url(#pb8a8e7a16a)">
     <use xlink:href="#m0a326d907b" x="673.690909" y="167.188343" style="fill: #5a189a; stroke: #5a189a; stroke-width: 1.2"/>
    </g>
   </g>
   <g id="line2d_17">
    <g clip-path="url(#pb8a8e7a16a)">
     <use xlink:href="#m0a326d907b" x="673.690909" y="167.188343" style="fill: #5a189a; stroke: #5a189a; stroke-width: 1.2"/>
    </g>
   </g>
   <g id="line2d_18">
    <path d="M 107.695015 371.852566 
L 119.280249 382.378808 
L 131.640568 378.575148 
L 141.743239 364.413395 
L 207.693112 349.49176 
L 277.308342 307.871017 
L 345.117454 193.009529 
L 390.85474 151.134724 
L 454.918813 64.034645 
L 488.703846 27.332731 
" clip-path="url(#pb8a8e7a16a)" style="fill: none; stroke: #0077b6; stroke-width: 3; stroke-linecap: square"/>
    <defs>
     <path id="mdfce0c762e" d="M 0 5 
C 1.326016 5 2.597899 4.473168 3.535534 3.535534 
C 4.473168 2.597899 5 1.326016 5 0 
C 5 -1.326016 4.473168 -2.597899 3.535534 -3.535534 
C 2.597899 -4.473168 1.326016 -5 0 -5 
C -1.326016 -5 -2.597899 -4.473168 -3.535534 -3.535534 
C -4.473168 -2.597899 -5 -1.326016 -5 0 
C -5 1.326016 -4.473168 2.597899 -3.535534 3.535534 
C -2.597899 4.473168 -1.326016 5 0 5 
z
" style="stroke: #0077b6"/>
    </defs>
    <g clip-path="url(#pb8a8e7a16a)">
     <use xlink:href="#mdfce0c762e" x="107.695015" y="371.852566" style="fill: #0077b6; stroke: #0077b6"/>
     <use xlink:href="#mdfce0c762e" x="119.280249" y="382.378808" style="fill: #0077b6; stroke: #0077b6"/>
     <use xlink:href="#mdfce0c762e" x="131.640568" y="378.575148" style="fill: #0077b6; stroke: #0077b6"/>
     <use xlink:href="#mdfce0c762e" x="141.743239" y="364.413395" style="fill: #0077b6; stroke: #0077b6"/>
     <use xlink:href="#mdfce0c762e" x="207.693112" y="349.49176" style="fill: #0077b6; stroke: #0077b6"/>
     <use xlink:href="#mdfce0c762e" x="277.308342" y="307.871017" style="fill: #0077b6; stroke: #0077b6"/>
     <use xlink:href="#mdfce0c762e" x="345.117454" y="193.009529" style="fill: #0077b6; stroke: #0077b6"/>
     <use xlink:href="#mdfce0c762e" x="390.85474" y="151.134724" style="fill: #0077b6; stroke: #0077b6"/>
     <use xlink:href="#mdfce0c762e" x="454.918813" y="64.034645" style="fill: #0077b6; stroke: #0077b6"/>
     <use xlink:href="#mdfce0c762e" x="488.703846" y="27.332731" style="fill: #0077b6; stroke: #0077b6"/>
    </g>
   </g>
   <g id="line2d_19">
    <path d="M 673.690909 164.887991 
" clip-path="url(#pb8a8e7a16a)" style="fill: none; stroke: #c1121f; stroke-width: 2; stroke-linecap: square"/>
    <defs>
     <path id="m49f590c511" d="M 0 -4 
L -4 4 
L 4 4 
z
" style="stroke: #c1121f; stroke-linejoin: miter"/>
    </defs>
    <g clip-path="url(#pb8a8e7a16a)">
     <use xlink:href="#m49f590c511" x="673.690909" y="164.887991" style="fill: #c1121f; stroke: #c1121f; stroke-linejoin: miter"/>
    </g>
   </g>
   <g id="line2d_20">
    <path d="M 673.690909 167.188343 
" clip-path="url(#pb8a8e7a16a)" style="fill: none; stroke: #5a189a; stroke-width: 2; stroke-linecap: square"/>
    <defs>
     <path id="m306ced72e6" d="M -0 5.656854 
L 5.656854 0 
L 0 -5.656854 
L -5.656854 -0 
z
" style="stroke: #5a189a; stroke-linejoin: miter"/>
    </defs>
    <g clip-path="url(#pb8a8e7a16a)">
     <use xlink:href="#m306ced72e6" x="673.690909" y="167.188343" style="fill: #5a189a; stroke: #5a189a; stroke-linejoin: miter"/>
    </g>
   </g>
   <g id="patch_3">
    <path d="M 79.2 401.478221 
L 79.2 9.516279 
" style="fill: none; stroke: #000000; stroke-width: 0.8; stroke-linejoin: miter; stroke-linecap: square"/>
   </g>
   <g id="patch_4">
    <path d="M 79.2 401.478221 
L 702 401.478221 
" style="fill: none; stroke: #000000; stroke-width: 0.8; stroke-linejoin: miter; stroke-linecap: square"/>
   </g>
   <g id="text_7">
    <!-- 1 -->
    <g style="fill: #001f3f" transform="translate(113.695015 379.852566) scale(0.1 -0.1)">
     <defs>
      <path id="DejaVuSans-Bold-31" d="M 750 831 
L 1813 831 
L 1813 3847 
L 722 3622 
L 722 4441 
L 1806 4666 
L 2950 4666 
L 2950 831 
L 4013 831 
L 4013 0 
L 750 0 
L 750 831 
z
" transform="scale(0.015625)"/>
     </defs>
     <use xlink:href="#DejaVuSans-Bold-31"/>
    </g>
   </g>
   <g id="text_8">
    <!-- 2 -->
    <g style="fill: #001f3f" transform="translate(125.280249 390.378808) scale(0.1 -0.1)">
     <defs>
      <path id="DejaVuSans-Bold-32" d="M 1844 884 
L 3897 884 
L 3897 0 
L 506 0 
L 506 884 
L 2209 2388 
Q 2438 2594 2547 2791 
Q 2656 2988 2656 3200 
Q 2656 3528 2436 3728 
Q 2216 3928 1850 3928 
Q 1569 3928 1234 3808 
Q 900 3688 519 3450 
L 519 4475 
Q 925 4609 1322 4679 
Q 1719 4750 2100 4750 
Q 2938 4750 3402 4381 
Q 3866 4013 3866 3353 
Q 3866 2972 3669 2642 
Q 3472 2313 2841 1759 
L 1844 884 
z
" transform="scale(0.015625)"/>
     </defs>
     <use xlink:href="#DejaVuSans-Bold-32"/>
    </g>
   </g>
   <g id="text_9">
    <!-- 3 -->
    <g style="fill: #001f3f" transform="translate(137.640568 386.575148) scale(0.1 -0.1)">
     <defs>
      <path id="DejaVuSans-Bold-33" d="M 2981 2516 
Q 3453 2394 3698 2092 
Q 3944 1791 3944 1325 
Q 3944 631 3412 270 
Q 2881 -91 1863 -91 
Q 1503 -91 1142 -33 
Q 781 25 428 141 
L 428 1069 
Q 766 900 1098 814 
Q 1431 728 1753 728 
Q 2231 728 2486 893 
Q 2741 1059 2741 1369 
Q 2741 1688 2480 1852 
Q 2219 2016 1709 2016 
L 1228 2016 
L 1228 2791 
L 1734 2791 
Q 2188 2791 2409 2933 
Q 2631 3075 2631 3366 
Q 2631 3634 2415 3781 
Q 2200 3928 1806 3928 
Q 1516 3928 1219 3862 
Q 922 3797 628 3669 
L 628 4550 
Q 984 4650 1334 4700 
Q 1684 4750 2022 4750 
Q 2931 4750 3382 4451 
Q 3834 4153 3834 3553 
Q 3834 3144 3618 2883 
Q 3403 2622 2981 2516 
z
" transform="scale(0.015625)"/>
     </defs>
     <use xlink:href="#DejaVuSans-Bold-33"/>
    </g>
   </g>
   <g id="text_10">
    <!-- 4 -->
    <g style="fill: #001f3f" transform="translate(147.743239 372.413395) scale(0.1 -0.1)">
     <defs>
      <path id="DejaVuSans-Bold-34" d="M 2356 3675 
L 1038 1722 
L 2356 1722 
L 2356 3675 
z
M 2156 4666 
L 3494 4666 
L 3494 1722 
L 4159 1722 
L 4159 850 
L 3494 850 
L 3494 0 
L 2356 0 
L 2356 850 
L 288 850 
L 288 1881 
L 2156 4666 
z
" transform="scale(0.015625)"/>
     </defs>
     <use xlink:href="#DejaVuSans-Bold-34"/>
    </g>
   </g>
   <g id="text_11">
    <!-- 10 -->
    <g style="fill: #001f3f" transform="translate(213.693112 357.49176) scale(0.1 -0.1)">
     <defs>
      <path id="DejaVuSans-Bold-30" d="M 2944 2338 
Q 2944 3213 2780 3570 
Q 2616 3928 2228 3928 
Q 1841 3928 1675 3570 
Q 1509 3213 1509 2338 
Q 1509 1453 1675 1090 
Q 1841 728 2228 728 
Q 2613 728 2778 1090 
Q 2944 1453 2944 2338 
z
M 4147 2328 
Q 4147 1169 3647 539 
Q 3147 -91 2228 -91 
Q 1306 -91 806 539 
Q 306 1169 306 2328 
Q 306 3491 806 4120 
Q 1306 4750 2228 4750 
Q 3147 4750 3647 4120 
Q 4147 3491 4147 2328 
z
" transform="scale(0.015625)"/>
     </defs>
     <use xlink:href="#DejaVuSans-Bold-31"/>
     <use xlink:href="#DejaVuSans-Bold-30" transform="translate(69.580078 0)"/>
    </g>
   </g>
   <g id="text_12">
    <!-- 16 -->
    <g style="fill: #001f3f" transform="translate(283.308342 315.871017) scale(0.1 -0.1)">
     <defs>
      <path id="DejaVuSans-Bold-36" d="M 2316 2303 
Q 2000 2303 1842 2098 
Q 1684 1894 1684 1484 
Q 1684 1075 1842 870 
Q 2000 666 2316 666 
Q 2634 666 2792 870 
Q 2950 1075 2950 1484 
Q 2950 1894 2792 2098 
Q 2634 2303 2316 2303 
z
M 3803 4544 
L 3803 3681 
Q 3506 3822 3243 3889 
Q 2981 3956 2731 3956 
Q 2194 3956 1894 3657 
Q 1594 3359 1544 2772 
Q 1750 2925 1990 3001 
Q 2231 3078 2516 3078 
Q 3231 3078 3670 2659 
Q 4109 2241 4109 1563 
Q 4109 813 3618 361 
Q 3128 -91 2303 -91 
Q 1394 -91 895 523 
Q 397 1138 397 2266 
Q 397 3422 980 4083 
Q 1563 4744 2578 4744 
Q 2900 4744 3203 4694 
Q 3506 4644 3803 4544 
z
" transform="scale(0.015625)"/>
     </defs>
     <use xlink:href="#DejaVuSans-Bold-31"/>
     <use xlink:href="#DejaVuSans-Bold-36" transform="translate(69.580078 0)"/>
    </g>
   </g>
   <g id="text_13">
    <!-- 22 -->
    <g style="fill: #001f3f" transform="translate(351.117454 201.009529) scale(0.1 -0.1)">
     <use xlink:href="#DejaVuSans-Bold-32"/>
     <use xlink:href="#DejaVuSans-Bold-32" transform="translate(69.580078 0)"/>
    </g>
   </g>
   <g id="text_14">
    <!-- 26 -->
    <g style="fill: #001f3f" transform="translate(396.85474 159.134724) scale(0.1 -0.1)">
     <use xlink:href="#DejaVuSans-Bold-32"/>
     <use xlink:href="#DejaVuSans-Bold-36" transform="translate(69.580078 0)"/>
    </g>
   </g>
   <g id="text_15">
    <!-- 32 -->
    <g style="fill: #001f3f" transform="translate(460.918813 72.034645) scale(0.1 -0.1)">
     <use xlink:href="#DejaVuSans-Bold-33"/>
     <use xlink:href="#DejaVuSans-Bold-32" transform="translate(69.580078 0)"/>
    </g>
   </g>
   <g id="text_16">
    <!-- 35 -->
    <g style="fill: #001f3f" transform="translate(494.703846 35.332731) scale(0.1 -0.1)">
     <defs>
      <path id="DejaVuSans-Bold-35" d="M 678 4666 
L 3669 4666 
L 3669 3781 
L 1638 3781 
L 1638 3059 
Q 1775 3097 1914 3117 
Q 2053 3138 2203 3138 
Q 3056 3138 3531 2711 
Q 4006 2284 4006 1522 
Q 4006 766 3489 337 
Q 2972 -91 2053 -91 
Q 1656 -91 1267 -14 
Q 878 63 494 219 
L 494 1166 
Q 875 947 1217 837 
Q 1559 728 1863 728 
Q 2300 728 2551 942 
Q 2803 1156 2803 1522 
Q 2803 1891 2551 2103 
Q 2300 2316 1863 2316 
Q 1603 2316 1309 2248 
Q 1016 2181 678 2041 
L 678 4666 
z
" transform="scale(0.015625)"/>
     </defs>
     <use xlink:href="#DejaVuSans-Bold-33"/>
     <use xlink:href="#DejaVuSans-Bold-35" transform="translate(69.580078 0)"/>
    </g>
   </g>
   <g id="line2d_21">
    <path d="M 107.509091 376.620577 
L 119.280249 383.661769 
" clip-path="url(#pb8a8e7a16a)" style="fill: none; stroke: #f24236; stroke-width: 3; stroke-linecap: square"/>
    <defs>
     <path id="mcb9c058e26" d="M 0 -5 
L -5 5 
L 5 5 
z
" style="stroke: #f24236; stroke-linejoin: miter"/>
    </defs>
    <g clip-path="url(#pb8a8e7a16a)">
     <use xlink:href="#mcb9c058e26" x="107.509091" y="376.620577" style="fill: #f24236; stroke: #f24236; stroke-linejoin: miter"/>
     <use xlink:href="#mcb9c058e26" x="119.280249" y="383.661769" style="fill: #f24236; stroke: #f24236; stroke-linejoin: miter"/>
    </g>
   </g>
   <g id="text_17">
    <!-- 1 -->
    <g style="fill: #7d2528" transform="translate(114.509091 388.620577) scale(0.1 -0.1)">
     <use xlink:href="#DejaVuSans-Bold-31"/>
    </g>
   </g>
   <g id="text_18">
    <!-- 2 -->
    <g style="fill: #7d2528" transform="translate(126.280249 395.661769) scale(0.1 -0.1)">
     <use xlink:href="#DejaVuSans-Bold-32"/>
    </g>
   </g>
   <g id="legend_1">
    <g id="line2d_22">
     <path d="M 326.9125 284.250096 
L 346.9125 284.250096 
L 366.9125 284.250096 
" style="fill: none; stroke: #f24236; stroke-width: 3; stroke-linecap: square"/>
     <g>
      <use xlink:href="#mcb9c058e26" x="346.9125" y="284.250096" style="fill: #f24236; stroke: #f24236; stroke-linejoin: miter"/>
     </g>
    </g>
    <g id="text_19">
     <!-- H1-1 (QPU) -->
     <g transform="translate(382.9125 291.250096) scale(0.2 -0.2)">
      <defs>
       <path id="DejaVuSans-48" d="M 628 4666 
L 1259 4666 
L 1259 2753 
L 3553 2753 
L 3553 4666 
L 4184 4666 
L 4184 0 
L 3553 0 
L 3553 2222 
L 1259 2222 
L 1259 0 
L 628 0 
L 628 4666 
z
" transform="scale(0.015625)"/>
       <path id="DejaVuSans-2d" d="M 313 2009 
L 1997 2009 
L 1997 1497 
L 313 1497 
L 313 2009 
z
" transform="scale(0.015625)"/>
       <path id="DejaVuSans-20" transform="scale(0.015625)"/>
       <path id="DejaVuSans-28" d="M 1984 4856 
Q 1566 4138 1362 3434 
Q 1159 2731 1159 2009 
Q 1159 1288 1364 580 
Q 1569 -128 1984 -844 
L 1484 -844 
Q 1016 -109 783 600 
Q 550 1309 550 2009 
Q 550 2706 781 3412 
Q 1013 4119 1484 4856 
L 1984 4856 
z
" transform="scale(0.015625)"/>
       <path id="DejaVuSans-51" d="M 2522 4238 
Q 1834 4238 1429 3725 
Q 1025 3213 1025 2328 
Q 1025 1447 1429 934 
Q 1834 422 2522 422 
Q 3209 422 3611 934 
Q 4013 1447 4013 2328 
Q 4013 3213 3611 3725 
Q 3209 4238 2522 4238 
z
M 3406 84 
L 4238 -825 
L 3475 -825 
L 2784 -78 
Q 2681 -84 2626 -87 
Q 2572 -91 2522 -91 
Q 1538 -91 948 567 
Q 359 1225 359 2328 
Q 359 3434 948 4092 
Q 1538 4750 2522 4750 
Q 3503 4750 4090 4092 
Q 4678 3434 4678 2328 
Q 4678 1516 4351 937 
Q 4025 359 3406 84 
z
" transform="scale(0.015625)"/>
       <path id="DejaVuSans-50" d="M 1259 4147 
L 1259 2394 
L 2053 2394 
Q 2494 2394 2734 2622 
Q 2975 2850 2975 3272 
Q 2975 3691 2734 3919 
Q 2494 4147 2053 4147 
L 1259 4147 
z
M 628 4666 
L 2053 4666 
Q 2838 4666 3239 4311 
Q 3641 3956 3641 3272 
Q 3641 2581 3239 2228 
Q 2838 1875 2053 1875 
L 1259 1875 
L 1259 0 
L 628 0 
L 628 4666 
z
" transform="scale(0.015625)"/>
       <path id="DejaVuSans-55" d="M 556 4666 
L 1191 4666 
L 1191 1831 
Q 1191 1081 1462 751 
Q 1734 422 2344 422 
Q 2950 422 3222 751 
Q 3494 1081 3494 1831 
L 3494 4666 
L 4128 4666 
L 4128 1753 
Q 4128 841 3676 375 
Q 3225 -91 2344 -91 
Q 1459 -91 1007 375 
Q 556 841 556 1753 
L 556 4666 
z
" transform="scale(0.015625)"/>
       <path id="DejaVuSans-29" d="M 513 4856 
L 1013 4856 
Q 1481 4119 1714 3412 
Q 1947 2706 1947 2009 
Q 1947 1309 1714 600 
Q 1481 -109 1013 -844 
L 513 -844 
Q 928 -128 1133 580 
Q 1338 1288 1338 2009 
Q 1338 2731 1133 3434 
Q 928 4138 513 4856 
z
" transform="scale(0.015625)"/>
      </defs>
      <use xlink:href="#DejaVuSans-48"/>
      <use xlink:href="#DejaVuSans-31" transform="translate(75.195312 0)"/>
      <use xlink:href="#DejaVuSans-2d" transform="translate(138.818359 0)"/>
      <use xlink:href="#DejaVuSans-31" transform="translate(174.902344 0)"/>
      <use xlink:href="#DejaVuSans-20" transform="translate(238.525391 0)"/>
      <use xlink:href="#DejaVuSans-28" transform="translate(270.3125 0)"/>
      <use xlink:href="#DejaVuSans-51" transform="translate(309.326172 0)"/>
      <use xlink:href="#DejaVuSans-50" transform="translate(388.037109 0)"/>
      <use xlink:href="#DejaVuSans-55" transform="translate(448.339844 0)"/>
      <use xlink:href="#DejaVuSans-29" transform="translate(521.533203 0)"/>
     </g>
    </g>
    <g id="LineCollection_4">
     <path d="M 346.9125 323.606346 
L 346.9125 303.606346 
" style="fill: none; stroke: #0077b6; stroke-width: 3"/>
    </g>
    <g id="line2d_23">
     <g>
      <use xlink:href="#m53c066049e" x="346.9125" y="323.606346" style="fill: #0077b6; stroke: #0077b6; stroke-width: 1.2"/>
     </g>
    </g>
    <g id="line2d_24">
     <g>
      <use xlink:href="#m53c066049e" x="346.9125" y="303.606346" style="fill: #0077b6; stroke: #0077b6; stroke-width: 1.2"/>
     </g>
    </g>
    <g id="line2d_25">
     <path d="M 326.9125 313.606346 
L 366.9125 313.606346 
" style="fill: none; stroke: #0077b6; stroke-width: 3; stroke-linecap: square"/>
    </g>
    <g id="line2d_26">
     <g>
      <use xlink:href="#mdfce0c762e" x="346.9125" y="313.606346" style="fill: #0077b6; stroke: #0077b6"/>
     </g>
    </g>
    <g id="text_20">
     <!-- H1-1E (Emulator) -->
     <g transform="translate(382.9125 320.606346) scale(0.2 -0.2)">
      <defs>
       <path id="DejaVuSans-45" d="M 628 4666 
L 3578 4666 
L 3578 4134 
L 1259 4134 
L 1259 2753 
L 3481 2753 
L 3481 2222 
L 1259 2222 
L 1259 531 
L 3634 531 
L 3634 0 
L 628 0 
L 628 4666 
z
" transform="scale(0.015625)"/>
       <path id="DejaVuSans-6d" d="M 3328 2828 
Q 3544 3216 3844 3400 
Q 4144 3584 4550 3584 
Q 5097 3584 5394 3201 
Q 5691 2819 5691 2113 
L 5691 0 
L 5113 0 
L 5113 2094 
Q 5113 2597 4934 2840 
Q 4756 3084 4391 3084 
Q 3944 3084 3684 2787 
Q 3425 2491 3425 1978 
L 3425 0 
L 2847 0 
L 2847 2094 
Q 2847 2600 2669 2842 
Q 2491 3084 2119 3084 
Q 1678 3084 1418 2786 
Q 1159 2488 1159 1978 
L 1159 0 
L 581 0 
L 581 3500 
L 1159 3500 
L 1159 2956 
Q 1356 3278 1631 3431 
Q 1906 3584 2284 3584 
Q 2666 3584 2933 3390 
Q 3200 3197 3328 2828 
z
" transform="scale(0.015625)"/>
       <path id="DejaVuSans-75" d="M 544 1381 
L 544 3500 
L 1119 3500 
L 1119 1403 
Q 1119 906 1312 657 
Q 1506 409 1894 409 
Q 2359 409 2629 706 
Q 2900 1003 2900 1516 
L 2900 3500 
L 3475 3500 
L 3475 0 
L 2900 0 
L 2900 538 
Q 2691 219 2414 64 
Q 2138 -91 1772 -91 
Q 1169 -91 856 284 
Q 544 659 544 1381 
z
M 1991 3584 
L 1991 3584 
z
" transform="scale(0.015625)"/>
       <path id="DejaVuSans-6c" d="M 603 4863 
L 1178 4863 
L 1178 0 
L 603 0 
L 603 4863 
z
" transform="scale(0.015625)"/>
       <path id="DejaVuSans-61" d="M 2194 1759 
Q 1497 1759 1228 1600 
Q 959 1441 959 1056 
Q 959 750 1161 570 
Q 1363 391 1709 391 
Q 2188 391 2477 730 
Q 2766 1069 2766 1631 
L 2766 1759 
L 2194 1759 
z
M 3341 1997 
L 3341 0 
L 2766 0 
L 2766 531 
Q 2569 213 2275 61 
Q 1981 -91 1556 -91 
Q 1019 -91 701 211 
Q 384 513 384 1019 
Q 384 1609 779 1909 
Q 1175 2209 1959 2209 
L 2766 2209 
L 2766 2266 
Q 2766 2663 2505 2880 
Q 2244 3097 1772 3097 
Q 1472 3097 1187 3025 
Q 903 2953 641 2809 
L 641 3341 
Q 956 3463 1253 3523 
Q 1550 3584 1831 3584 
Q 2591 3584 2966 3190 
Q 3341 2797 3341 1997 
z
" transform="scale(0.015625)"/>
       <path id="DejaVuSans-74" d="M 1172 4494 
L 1172 3500 
L 2356 3500 
L 2356 3053 
L 1172 3053 
L 1172 1153 
Q 1172 725 1289 603 
Q 1406 481 1766 481 
L 2356 481 
L 2356 0 
L 1766 0 
Q 1100 0 847 248 
Q 594 497 594 1153 
L 594 3053 
L 172 3053 
L 172 3500 
L 594 3500 
L 594 4494 
L 1172 4494 
z
" transform="scale(0.015625)"/>
       <path id="DejaVuSans-6f" d="M 1959 3097 
Q 1497 3097 1228 2736 
Q 959 2375 959 1747 
Q 959 1119 1226 758 
Q 1494 397 1959 397 
Q 2419 397 2687 759 
Q 2956 1122 2956 1747 
Q 2956 2369 2687 2733 
Q 2419 3097 1959 3097 
z
M 1959 3584 
Q 2709 3584 3137 3096 
Q 3566 2609 3566 1747 
Q 3566 888 3137 398 
Q 2709 -91 1959 -91 
Q 1206 -91 779 398 
Q 353 888 353 1747 
Q 353 2609 779 3096 
Q 1206 3584 1959 3584 
z
" transform="scale(0.015625)"/>
       <path id="DejaVuSans-72" d="M 2631 2963 
Q 2534 3019 2420 3045 
Q 2306 3072 2169 3072 
Q 1681 3072 1420 2755 
Q 1159 2438 1159 1844 
L 1159 0 
L 581 0 
L 581 3500 
L 1159 3500 
L 1159 2956 
Q 1341 3275 1631 3429 
Q 1922 3584 2338 3584 
Q 2397 3584 2469 3576 
Q 2541 3569 2628 3553 
L 2631 2963 
z
" transform="scale(0.015625)"/>
      </defs>
      <use xlink:href="#DejaVuSans-48"/>
      <use xlink:href="#DejaVuSans-31" transform="translate(75.195312 0)"/>
      <use xlink:href="#DejaVuSans-2d" transform="translate(138.818359 0)"/>
      <use xlink:href="#DejaVuSans-31" transform="translate(174.902344 0)"/>
      <use xlink:href="#DejaVuSans-45" transform="translate(238.525391 0)"/>
      <use xlink:href="#DejaVuSans-20" transform="translate(301.708984 0)"/>
      <use xlink:href="#DejaVuSans-28" transform="translate(333.496094 0)"/>
      <use xlink:href="#DejaVuSans-45" transform="translate(372.509766 0)"/>
      <use xlink:href="#DejaVuSans-6d" transform="translate(435.693359 0)"/>
      <use xlink:href="#DejaVuSans-75" transform="translate(533.105469 0)"/>
      <use xlink:href="#DejaVuSans-6c" transform="translate(596.484375 0)"/>
      <use xlink:href="#DejaVuSans-61" transform="translate(624.267578 0)"/>
      <use xlink:href="#DejaVuSans-74" transform="translate(685.546875 0)"/>
      <use xlink:href="#DejaVuSans-6f" transform="translate(724.755859 0)"/>
      <use xlink:href="#DejaVuSans-72" transform="translate(785.9375 0)"/>
      <use xlink:href="#DejaVuSans-29" transform="translate(827.050781 0)"/>
     </g>
    </g>
    <g id="LineCollection_5">
     <path d="M 346.9125 352.962596 
L 346.9125 332.962596 
" style="fill: none; stroke: #c1121f; stroke-width: 2"/>
    </g>
    <g id="line2d_27">
     <g>
      <use xlink:href="#mf012ac0b50" x="346.9125" y="352.962596" style="fill: #c1121f; stroke: #c1121f; stroke-width: 1.2"/>
     </g>
    </g>
    <g id="line2d_28">
     <g>
      <use xlink:href="#mf012ac0b50" x="346.9125" y="332.962596" style="fill: #c1121f; stroke: #c1121f; stroke-width: 1.2"/>
     </g>
    </g>
    <g id="line2d_29">
     <path d="M 326.9125 342.962596 
L 366.9125 342.962596 
" style="fill: none; stroke: #c1121f; stroke-width: 2; stroke-linecap: square"/>
    </g>
    <g id="line2d_30">
     <g>
      <use xlink:href="#m49f590c511" x="346.9125" y="342.962596" style="fill: #c1121f; stroke: #c1121f; stroke-linejoin: miter"/>
     </g>
    </g>
    <g id="text_21">
     <!-- ADAPT-VQE (UCC pool) -->
     <g transform="translate(382.9125 349.962596) scale(0.2 -0.2)">
      <defs>
       <path id="DejaVuSans-41" d="M 2188 4044 
L 1331 1722 
L 3047 1722 
L 2188 4044 
z
M 1831 4666 
L 2547 4666 
L 4325 0 
L 3669 0 
L 3244 1197 
L 1141 1197 
L 716 0 
L 50 0 
L 1831 4666 
z
" transform="scale(0.015625)"/>
       <path id="DejaVuSans-44" d="M 1259 4147 
L 1259 519 
L 2022 519 
Q 2988 519 3436 956 
Q 3884 1394 3884 2338 
Q 3884 3275 3436 3711 
Q 2988 4147 2022 4147 
L 1259 4147 
z
M 628 4666 
L 1925 4666 
Q 3281 4666 3915 4102 
Q 4550 3538 4550 2338 
Q 4550 1131 3912 565 
Q 3275 0 1925 0 
L 628 0 
L 628 4666 
z
" transform="scale(0.015625)"/>
       <path id="DejaVuSans-54" d="M -19 4666 
L 3928 4666 
L 3928 4134 
L 2272 4134 
L 2272 0 
L 1638 0 
L 1638 4134 
L -19 4134 
L -19 4666 
z
" transform="scale(0.015625)"/>
       <path id="DejaVuSans-56" d="M 1831 0 
L 50 4666 
L 709 4666 
L 2188 738 
L 3669 4666 
L 4325 4666 
L 2547 0 
L 1831 0 
z
" transform="scale(0.015625)"/>
       <path id="DejaVuSans-43" d="M 4122 4306 
L 4122 3641 
Q 3803 3938 3442 4084 
Q 3081 4231 2675 4231 
Q 1875 4231 1450 3742 
Q 1025 3253 1025 2328 
Q 1025 1406 1450 917 
Q 1875 428 2675 428 
Q 3081 428 3442 575 
Q 3803 722 4122 1019 
L 4122 359 
Q 3791 134 3420 21 
Q 3050 -91 2638 -91 
Q 1578 -91 968 557 
Q 359 1206 359 2328 
Q 359 3453 968 4101 
Q 1578 4750 2638 4750 
Q 3056 4750 3426 4639 
Q 3797 4528 4122 4306 
z
" transform="scale(0.015625)"/>
       <path id="DejaVuSans-70" d="M 1159 525 
L 1159 -1331 
L 581 -1331 
L 581 3500 
L 1159 3500 
L 1159 2969 
Q 1341 3281 1617 3432 
Q 1894 3584 2278 3584 
Q 2916 3584 3314 3078 
Q 3713 2572 3713 1747 
Q 3713 922 3314 415 
Q 2916 -91 2278 -91 
Q 1894 -91 1617 61 
Q 1341 213 1159 525 
z
M 3116 1747 
Q 3116 2381 2855 2742 
Q 2594 3103 2138 3103 
Q 1681 3103 1420 2742 
Q 1159 2381 1159 1747 
Q 1159 1113 1420 752 
Q 1681 391 2138 391 
Q 2594 391 2855 752 
Q 3116 1113 3116 1747 
z
" transform="scale(0.015625)"/>
      </defs>
      <use xlink:href="#DejaVuSans-41"/>
      <use xlink:href="#DejaVuSans-44" transform="translate(68.408203 0)"/>
      <use xlink:href="#DejaVuSans-41" transform="translate(143.660156 0)"/>
      <use xlink:href="#DejaVuSans-50" transform="translate(212.068359 0)"/>
      <use xlink:href="#DejaVuSans-54" transform="translate(272.371094 0)"/>
      <use xlink:href="#DejaVuSans-2d" transform="translate(324.330078 0)"/>
      <use xlink:href="#DejaVuSans-56" transform="translate(354.539062 0)"/>
      <use xlink:href="#DejaVuSans-51" transform="translate(422.947266 0)"/>
      <use xlink:href="#DejaVuSans-45" transform="translate(501.658203 0)"/>
      <use xlink:href="#DejaVuSans-20" transform="translate(564.841797 0)"/>
      <use xlink:href="#DejaVuSans-28" transform="translate(596.628906 0)"/>
      <use xlink:href="#DejaVuSans-55" transform="translate(635.642578 0)"/>
      <use xlink:href="#DejaVuSans-43" transform="translate(708.835938 0)"/>
      <use xlink:href="#DejaVuSans-43" transform="translate(778.660156 0)"/>
      <use xlink:href="#DejaVuSans-20" transform="translate(848.484375 0)"/>
      <use xlink:href="#DejaVuSans-70" transform="translate(880.271484 0)"/>
      <use xlink:href="#DejaVuSans-6f" transform="translate(943.748047 0)"/>
      <use xlink:href="#DejaVuSans-6f" transform="translate(1004.929688 0)"/>
      <use xlink:href="#DejaVuSans-6c" transform="translate(1066.111328 0)"/>
      <use xlink:href="#DejaVuSans-29" transform="translate(1093.894531 0)"/>
     </g>
    </g>
    <g id="LineCollection_6">
     <path d="M 346.9125 382.318846 
L 346.9125 362.318846 
" style="fill: none; stroke: #5a189a; stroke-width: 2"/>
    </g>
    <g id="line2d_31">
     <g>
      <use xlink:href="#m0a326d907b" x="346.9125" y="382.318846" style="fill: #5a189a; stroke: #5a189a; stroke-width: 1.2"/>
     </g>
    </g>
    <g id="line2d_32">
     <g>
      <use xlink:href="#m0a326d907b" x="346.9125" y="362.318846" style="fill: #5a189a; stroke: #5a189a; stroke-width: 1.2"/>
     </g>
    </g>
    <g id="line2d_33">
     <path d="M 326.9125 372.318846 
L 366.9125 372.318846 
" style="fill: none; stroke: #5a189a; stroke-width: 2; stroke-linecap: square"/>
    </g>
    <g id="line2d_34">
     <g>
      <use xlink:href="#m306ced72e6" x="346.9125" y="372.318846" style="fill: #5a189a; stroke: #5a189a; stroke-linejoin: miter"/>
     </g>
    </g>
    <g id="text_22">
     <!-- ADAPT-VQE (generalized pool) -->
     <g transform="translate(382.9125 379.318846) scale(0.2 -0.2)">
      <defs>
       <path id="DejaVuSans-67" d="M 2906 1791 
Q 2906 2416 2648 2759 
Q 2391 3103 1925 3103 
Q 1463 3103 1205 2759 
Q 947 2416 947 1791 
Q 947 1169 1205 825 
Q 1463 481 1925 481 
Q 2391 481 2648 825 
Q 2906 1169 2906 1791 
z
M 3481 434 
Q 3481 -459 3084 -895 
Q 2688 -1331 1869 -1331 
Q 1566 -1331 1297 -1286 
Q 1028 -1241 775 -1147 
L 775 -588 
Q 1028 -725 1275 -790 
Q 1522 -856 1778 -856 
Q 2344 -856 2625 -561 
Q 2906 -266 2906 331 
L 2906 616 
Q 2728 306 2450 153 
Q 2172 0 1784 0 
Q 1141 0 747 490 
Q 353 981 353 1791 
Q 353 2603 747 3093 
Q 1141 3584 1784 3584 
Q 2172 3584 2450 3431 
Q 2728 3278 2906 2969 
L 2906 3500 
L 3481 3500 
L 3481 434 
z
" transform="scale(0.015625)"/>
       <path id="DejaVuSans-65" d="M 3597 1894 
L 3597 1613 
L 953 1613 
Q 991 1019 1311 708 
Q 1631 397 2203 397 
Q 2534 397 2845 478 
Q 3156 559 3463 722 
L 3463 178 
Q 3153 47 2828 -22 
Q 2503 -91 2169 -91 
Q 1331 -91 842 396 
Q 353 884 353 1716 
Q 353 2575 817 3079 
Q 1281 3584 2069 3584 
Q 2775 3584 3186 3129 
Q 3597 2675 3597 1894 
z
M 3022 2063 
Q 3016 2534 2758 2815 
Q 2500 3097 2075 3097 
Q 1594 3097 1305 2825 
Q 1016 2553 972 2059 
L 3022 2063 
z
" transform="scale(0.015625)"/>
       <path id="DejaVuSans-6e" d="M 3513 2113 
L 3513 0 
L 2938 0 
L 2938 2094 
Q 2938 2591 2744 2837 
Q 2550 3084 2163 3084 
Q 1697 3084 1428 2787 
Q 1159 2491 1159 1978 
L 1159 0 
L 581 0 
L 581 3500 
L 1159 3500 
L 1159 2956 
Q 1366 3272 1645 3428 
Q 1925 3584 2291 3584 
Q 2894 3584 3203 3211 
Q 3513 2838 3513 2113 
z
" transform="scale(0.015625)"/>
       <path id="DejaVuSans-69" d="M 603 3500 
L 1178 3500 
L 1178 0 
L 603 0 
L 603 3500 
z
M 603 4863 
L 1178 4863 
L 1178 4134 
L 603 4134 
L 603 4863 
z
" transform="scale(0.015625)"/>
       <path id="DejaVuSans-7a" d="M 353 3500 
L 3084 3500 
L 3084 2975 
L 922 459 
L 3084 459 
L 3084 0 
L 275 0 
L 275 525 
L 2438 3041 
L 353 3041 
L 353 3500 
z
" transform="scale(0.015625)"/>
       <path id="DejaVuSans-64" d="M 2906 2969 
L 2906 4863 
L 3481 4863 
L 3481 0 
L 2906 0 
L 2906 525 
Q 2725 213 2448 61 
Q 2172 -91 1784 -91 
Q 1150 -91 751 415 
Q 353 922 353 1747 
Q 353 2572 751 3078 
Q 1150 3584 1784 3584 
Q 2172 3584 2448 3432 
Q 2725 3281 2906 2969 
z
M 947 1747 
Q 947 1113 1208 752 
Q 1469 391 1925 391 
Q 2381 391 2643 752 
Q 2906 1113 2906 1747 
Q 2906 2381 2643 2742 
Q 2381 3103 1925 3103 
Q 1469 3103 1208 2742 
Q 947 2381 947 1747 
z
" transform="scale(0.015625)"/>
      </defs>
      <use xlink:href="#DejaVuSans-41"/>
      <use xlink:href="#DejaVuSans-44" transform="translate(68.408203 0)"/>
      <use xlink:href="#DejaVuSans-41" transform="translate(143.660156 0)"/>
      <use xlink:href="#DejaVuSans-50" transform="translate(212.068359 0)"/>
      <use xlink:href="#DejaVuSans-54" transform="translate(272.371094 0)"/>
      <use xlink:href="#DejaVuSans-2d" transform="translate(324.330078 0)"/>
      <use xlink:href="#DejaVuSans-56" transform="translate(354.539062 0)"/>
      <use xlink:href="#DejaVuSans-51" transform="translate(422.947266 0)"/>
      <use xlink:href="#DejaVuSans-45" transform="translate(501.658203 0)"/>
      <use xlink:href="#DejaVuSans-20" transform="translate(564.841797 0)"/>
      <use xlink:href="#DejaVuSans-28" transform="translate(596.628906 0)"/>
      <use xlink:href="#DejaVuSans-67" transform="translate(635.642578 0)"/>
      <use xlink:href="#DejaVuSans-65" transform="translate(699.119141 0)"/>
      <use xlink:href="#DejaVuSans-6e" transform="translate(760.642578 0)"/>
      <use xlink:href="#DejaVuSans-65" transform="translate(824.021484 0)"/>
      <use xlink:href="#DejaVuSans-72" transform="translate(885.544922 0)"/>
      <use xlink:href="#DejaVuSans-61" transform="translate(926.658203 0)"/>
      <use xlink:href="#DejaVuSans-6c" transform="translate(987.9375 0)"/>
      <use xlink:href="#DejaVuSans-69" transform="translate(1015.720703 0)"/>
      <use xlink:href="#DejaVuSans-7a" transform="translate(1043.503906 0)"/>
      <use xlink:href="#DejaVuSans-65" transform="translate(1095.994141 0)"/>
      <use xlink:href="#DejaVuSans-64" transform="translate(1157.517578 0)"/>
      <use xlink:href="#DejaVuSans-20" transform="translate(1220.994141 0)"/>
      <use xlink:href="#DejaVuSans-70" transform="translate(1252.78125 0)"/>
      <use xlink:href="#DejaVuSans-6f" transform="translate(1316.257812 0)"/>
      <use xlink:href="#DejaVuSans-6f" transform="translate(1377.439453 0)"/>
      <use xlink:href="#DejaVuSans-6c" transform="translate(1438.621094 0)"/>
      <use xlink:href="#DejaVuSans-29" transform="translate(1466.404297 0)"/>
     </g>
    </g>
   </g>
  </g>
  <g id="axes_2">
   <g id="patch_5">
    <path d="M 79.2 514.867252 
L 702 514.867252 
L 702 416.876767 
L 79.2 416.876767 
z
" style="fill: #ffffff"/>
   </g>
   <g id="matplotlib.axis_3">
    <g id="xtick_6">
     <g id="line2d_35">
      <g>
       <use xlink:href="#md153f79023" x="188.67575" y="514.867252" style="stroke: #000000; stroke-width: 0.8"/>
      </g>
     </g>
     <g id="text_23">
      <!-- 10000 -->
      <g transform="translate(166.407 532.505065) scale(0.14 -0.14)">
       <use xlink:href="#DejaVuSans-31"/>
       <use xlink:href="#DejaVuSans-30" transform="translate(63.623047 0)"/>
       <use xlink:href="#DejaVuSans-30" transform="translate(127.246094 0)"/>
       <use xlink:href="#DejaVuSans-30" transform="translate(190.869141 0)"/>
       <use xlink:href="#DejaVuSans-30" transform="translate(254.492188 0)"/>
      </g>
     </g>
    </g>
    <g id="xtick_7">
     <g id="line2d_36">
      <g>
       <use xlink:href="#md153f79023" x="309.405573" y="514.867252" style="stroke: #000000; stroke-width: 0.8"/>
      </g>
     </g>
     <g id="text_24">
      <!-- 20000 -->
      <g transform="translate(287.136823 532.505065) scale(0.14 -0.14)">
       <use xlink:href="#DejaVuSans-32"/>
       <use xlink:href="#DejaVuSans-30" transform="translate(63.623047 0)"/>
       <use xlink:href="#DejaVuSans-30" transform="translate(127.246094 0)"/>
       <use xlink:href="#DejaVuSans-30" transform="translate(190.869141 0)"/>
       <use xlink:href="#DejaVuSans-30" transform="translate(254.492188 0)"/>
      </g>
     </g>
    </g>
    <g id="xtick_8">
     <g id="line2d_37">
      <g>
       <use xlink:href="#md153f79023" x="430.135395" y="514.867252" style="stroke: #000000; stroke-width: 0.8"/>
      </g>
     </g>
     <g id="text_25">
      <!-- 30000 -->
      <g transform="translate(407.866645 532.505065) scale(0.14 -0.14)">
       <use xlink:href="#DejaVuSans-33"/>
       <use xlink:href="#DejaVuSans-30" transform="translate(63.623047 0)"/>
       <use xlink:href="#DejaVuSans-30" transform="translate(127.246094 0)"/>
       <use xlink:href="#DejaVuSans-30" transform="translate(190.869141 0)"/>
       <use xlink:href="#DejaVuSans-30" transform="translate(254.492188 0)"/>
      </g>
     </g>
    </g>
    <g id="xtick_9">
     <g id="line2d_38">
      <g>
       <use xlink:href="#md153f79023" x="550.865217" y="514.867252" style="stroke: #000000; stroke-width: 0.8"/>
      </g>
     </g>
     <g id="text_26">
      <!-- 40000 -->
      <g transform="translate(528.596467 532.505065) scale(0.14 -0.14)">
       <defs>
        <path id="DejaVuSans-34" d="M 2419 4116 
L 825 1625 
L 2419 1625 
L 2419 4116 
z
M 2253 4666 
L 3047 4666 
L 3047 1625 
L 3713 1625 
L 3713 1100 
L 3047 1100 
L 3047 0 
L 2419 0 
L 2419 1100 
L 313 1100 
L 313 1709 
L 2253 4666 
z
" transform="scale(0.015625)"/>
       </defs>
       <use xlink:href="#DejaVuSans-34"/>
       <use xlink:href="#DejaVuSans-30" transform="translate(63.623047 0)"/>
       <use xlink:href="#DejaVuSans-30" transform="translate(127.246094 0)"/>
       <use xlink:href="#DejaVuSans-30" transform="translate(190.869141 0)"/>
       <use xlink:href="#DejaVuSans-30" transform="translate(254.492188 0)"/>
      </g>
     </g>
    </g>
    <g id="xtick_10">
     <g id="line2d_39">
      <g>
       <use xlink:href="#md153f79023" x="671.595039" y="514.867252" style="stroke: #000000; stroke-width: 0.8"/>
      </g>
     </g>
     <g id="text_27">
      <!-- 50000 -->
      <g transform="translate(649.326289 532.505065) scale(0.14 -0.14)">
       <use xlink:href="#DejaVuSans-35"/>
       <use xlink:href="#DejaVuSans-30" transform="translate(63.623047 0)"/>
       <use xlink:href="#DejaVuSans-30" transform="translate(127.246094 0)"/>
       <use xlink:href="#DejaVuSans-30" transform="translate(190.869141 0)"/>
       <use xlink:href="#DejaVuSans-30" transform="translate(254.492188 0)"/>
      </g>
     </g>
    </g>
    <g id="text_28">
     <!-- HQC Cost -->
     <g transform="translate(337.96875 556.613502) scale(0.2 -0.2)">
      <defs>
       <path id="DejaVuSans-Bold-48" d="M 588 4666 
L 1791 4666 
L 1791 2888 
L 3566 2888 
L 3566 4666 
L 4769 4666 
L 4769 0 
L 3566 0 
L 3566 1978 
L 1791 1978 
L 1791 0 
L 588 0 
L 588 4666 
z
" transform="scale(0.015625)"/>
       <path id="DejaVuSans-Bold-51" d="M 2847 -84 
L 2753 -84 
Q 1600 -84 959 553 
Q 319 1191 319 2328 
Q 319 3463 958 4106 
Q 1597 4750 2719 4750 
Q 3853 4750 4486 4112 
Q 5119 3475 5119 2328 
Q 5119 1541 4783 972 
Q 4447 403 3816 116 
L 4756 -934 
L 3609 -934 
L 2847 -84 
z
M 2719 3878 
Q 2169 3878 1866 3472 
Q 1563 3066 1563 2328 
Q 1563 1578 1859 1179 
Q 2156 781 2719 781 
Q 3272 781 3575 1187 
Q 3878 1594 3878 2328 
Q 3878 3066 3575 3472 
Q 3272 3878 2719 3878 
z
" transform="scale(0.015625)"/>
       <path id="DejaVuSans-Bold-43" d="M 4288 256 
Q 3956 84 3597 -3 
Q 3238 -91 2847 -91 
Q 1681 -91 1000 561 
Q 319 1213 319 2328 
Q 319 3447 1000 4098 
Q 1681 4750 2847 4750 
Q 3238 4750 3597 4662 
Q 3956 4575 4288 4403 
L 4288 3438 
Q 3953 3666 3628 3772 
Q 3303 3878 2944 3878 
Q 2300 3878 1931 3465 
Q 1563 3053 1563 2328 
Q 1563 1606 1931 1193 
Q 2300 781 2944 781 
Q 3303 781 3628 887 
Q 3953 994 4288 1222 
L 4288 256 
z
" transform="scale(0.015625)"/>
       <path id="DejaVuSans-Bold-20" transform="scale(0.015625)"/>
       <path id="DejaVuSans-Bold-6f" d="M 2203 2784 
Q 1831 2784 1636 2517 
Q 1441 2250 1441 1747 
Q 1441 1244 1636 976 
Q 1831 709 2203 709 
Q 2569 709 2762 976 
Q 2956 1244 2956 1747 
Q 2956 2250 2762 2517 
Q 2569 2784 2203 2784 
z
M 2203 3584 
Q 3106 3584 3614 3096 
Q 4122 2609 4122 1747 
Q 4122 884 3614 396 
Q 3106 -91 2203 -91 
Q 1297 -91 786 396 
Q 275 884 275 1747 
Q 275 2609 786 3096 
Q 1297 3584 2203 3584 
z
" transform="scale(0.015625)"/>
       <path id="DejaVuSans-Bold-73" d="M 3272 3391 
L 3272 2541 
Q 2913 2691 2578 2766 
Q 2244 2841 1947 2841 
Q 1628 2841 1473 2761 
Q 1319 2681 1319 2516 
Q 1319 2381 1436 2309 
Q 1553 2238 1856 2203 
L 2053 2175 
Q 2913 2066 3209 1816 
Q 3506 1566 3506 1031 
Q 3506 472 3093 190 
Q 2681 -91 1863 -91 
Q 1516 -91 1145 -36 
Q 775 19 384 128 
L 384 978 
Q 719 816 1070 734 
Q 1422 653 1784 653 
Q 2113 653 2278 743 
Q 2444 834 2444 1013 
Q 2444 1163 2330 1236 
Q 2216 1309 1875 1350 
L 1678 1375 
Q 931 1469 631 1722 
Q 331 1975 331 2491 
Q 331 3047 712 3315 
Q 1094 3584 1881 3584 
Q 2191 3584 2531 3537 
Q 2872 3491 3272 3391 
z
" transform="scale(0.015625)"/>
       <path id="DejaVuSans-Bold-74" d="M 1759 4494 
L 1759 3500 
L 2913 3500 
L 2913 2700 
L 1759 2700 
L 1759 1216 
Q 1759 972 1856 886 
Q 1953 800 2241 800 
L 2816 800 
L 2816 0 
L 1856 0 
Q 1194 0 917 276 
Q 641 553 641 1216 
L 641 2700 
L 84 2700 
L 84 3500 
L 641 3500 
L 641 4494 
L 1759 4494 
z
" transform="scale(0.015625)"/>
      </defs>
      <use xlink:href="#DejaVuSans-Bold-48"/>
      <use xlink:href="#DejaVuSans-Bold-51" transform="translate(83.691406 0)"/>
      <use xlink:href="#DejaVuSans-Bold-43" transform="translate(168.701172 0)"/>
      <use xlink:href="#DejaVuSans-Bold-20" transform="translate(242.089844 0)"/>
      <use xlink:href="#DejaVuSans-Bold-43" transform="translate(276.904297 0)"/>
      <use xlink:href="#DejaVuSans-Bold-6f" transform="translate(350.292969 0)"/>
      <use xlink:href="#DejaVuSans-Bold-73" transform="translate(418.994141 0)"/>
      <use xlink:href="#DejaVuSans-Bold-74" transform="translate(478.515625 0)"/>
     </g>
    </g>
   </g>
   <g id="matplotlib.axis_4">
    <g id="ytick_7">
     <g id="line2d_40">
      <g>
       <use xlink:href="#m61776dbc44" x="79.2" y="510.413139" style="stroke: #000000; stroke-width: 0.8"/>
      </g>
     </g>
     <g id="text_29">
      <!-- $\mathdefault{10^{0}}$ -->
      <g transform="translate(51.08 514.972202) scale(0.12 -0.12)">
       <use xlink:href="#DejaVuSans-31" transform="translate(0 0.765625)"/>
       <use xlink:href="#DejaVuSans-30" transform="translate(63.623047 0.765625)"/>
       <use xlink:href="#DejaVuSans-30" transform="translate(128.203125 39.046875) scale(0.7)"/>
      </g>
     </g>
    </g>
    <g id="ytick_8">
     <g id="line2d_41">
      <g>
       <use xlink:href="#m61776dbc44" x="79.2" y="421.33088" style="stroke: #000000; stroke-width: 0.8"/>
      </g>
     </g>
     <g id="text_30">
      <!-- $\mathdefault{10^{1}}$ -->
      <g transform="translate(51.08 425.889942) scale(0.12 -0.12)">
       <use xlink:href="#DejaVuSans-31" transform="translate(0 0.684375)"/>
       <use xlink:href="#DejaVuSans-30" transform="translate(63.623047 0.684375)"/>
       <use xlink:href="#DejaVuSans-31" transform="translate(128.203125 38.965625) scale(0.7)"/>
      </g>
     </g>
    </g>
    <g id="ytick_9">
     <g id="line2d_42">
      <defs>
       <path id="m2e658a8546" d="M 0 0 
L -2 0 
" style="stroke: #000000; stroke-width: 0.6"/>
      </defs>
      <g>
       <use xlink:href="#m2e658a8546" x="79.2" y="514.48932" style="stroke: #000000; stroke-width: 0.6"/>
      </g>
     </g>
    </g>
    <g id="ytick_10">
     <g id="line2d_43">
      <g>
       <use xlink:href="#m2e658a8546" x="79.2" y="483.596707" style="stroke: #000000; stroke-width: 0.6"/>
      </g>
     </g>
    </g>
    <g id="ytick_11">
     <g id="line2d_44">
      <g>
       <use xlink:href="#m2e658a8546" x="79.2" y="467.9101" style="stroke: #000000; stroke-width: 0.6"/>
      </g>
     </g>
    </g>
    <g id="ytick_12">
     <g id="line2d_45">
      <g>
       <use xlink:href="#m2e658a8546" x="79.2" y="456.780275" style="stroke: #000000; stroke-width: 0.6"/>
      </g>
     </g>
    </g>
    <g id="ytick_13">
     <g id="line2d_46">
      <g>
       <use xlink:href="#m2e658a8546" x="79.2" y="448.147312" style="stroke: #000000; stroke-width: 0.6"/>
      </g>
     </g>
    </g>
    <g id="ytick_14">
     <g id="line2d_47">
      <g>
       <use xlink:href="#m2e658a8546" x="79.2" y="441.093668" style="stroke: #000000; stroke-width: 0.6"/>
      </g>
     </g>
    </g>
    <g id="ytick_15">
     <g id="line2d_48">
      <g>
       <use xlink:href="#m2e658a8546" x="79.2" y="435.129896" style="stroke: #000000; stroke-width: 0.6"/>
      </g>
     </g>
    </g>
    <g id="ytick_16">
     <g id="line2d_49">
      <g>
       <use xlink:href="#m2e658a8546" x="79.2" y="429.963843" style="stroke: #000000; stroke-width: 0.6"/>
      </g>
     </g>
    </g>
    <g id="ytick_17">
     <g id="line2d_50">
      <g>
       <use xlink:href="#m2e658a8546" x="79.2" y="425.40706" style="stroke: #000000; stroke-width: 0.6"/>
      </g>
     </g>
    </g>
   </g>
   <g id="patch_6">
    <path d="M 79.2 514.867252 
L 79.2 416.876767 
" style="fill: none; stroke: #000000; stroke-width: 0.8; stroke-linejoin: miter; stroke-linecap: square"/>
   </g>
   <g id="patch_7">
    <path d="M 79.2 514.867252 
L 702 514.867252 
" style="fill: none; stroke: #000000; stroke-width: 0.8; stroke-linejoin: miter; stroke-linecap: square"/>
   </g>
   <g id="legend_2"/>
  </g>
  <g id="text_31">
   <!-- Energy Error (Ha) -->
   <g transform="translate(22.375 382.843502) rotate(-90) scale(0.2 -0.2)">
    <defs>
     <path id="DejaVuSans-Bold-45" d="M 588 4666 
L 3834 4666 
L 3834 3756 
L 1791 3756 
L 1791 2888 
L 3713 2888 
L 3713 1978 
L 1791 1978 
L 1791 909 
L 3903 909 
L 3903 0 
L 588 0 
L 588 4666 
z
" transform="scale(0.015625)"/>
     <path id="DejaVuSans-Bold-6e" d="M 4056 2131 
L 4056 0 
L 2931 0 
L 2931 347 
L 2931 1631 
Q 2931 2084 2911 2256 
Q 2891 2428 2841 2509 
Q 2775 2619 2662 2680 
Q 2550 2741 2406 2741 
Q 2056 2741 1856 2470 
Q 1656 2200 1656 1722 
L 1656 0 
L 538 0 
L 538 3500 
L 1656 3500 
L 1656 2988 
Q 1909 3294 2193 3439 
Q 2478 3584 2822 3584 
Q 3428 3584 3742 3212 
Q 4056 2841 4056 2131 
z
" transform="scale(0.015625)"/>
     <path id="DejaVuSans-Bold-65" d="M 4031 1759 
L 4031 1441 
L 1416 1441 
Q 1456 1047 1700 850 
Q 1944 653 2381 653 
Q 2734 653 3104 758 
Q 3475 863 3866 1075 
L 3866 213 
Q 3469 63 3072 -14 
Q 2675 -91 2278 -91 
Q 1328 -91 801 392 
Q 275 875 275 1747 
Q 275 2603 792 3093 
Q 1309 3584 2216 3584 
Q 3041 3584 3536 3087 
Q 4031 2591 4031 1759 
z
M 2881 2131 
Q 2881 2450 2695 2645 
Q 2509 2841 2209 2841 
Q 1884 2841 1681 2658 
Q 1478 2475 1428 2131 
L 2881 2131 
z
" transform="scale(0.015625)"/>
     <path id="DejaVuSans-Bold-72" d="M 3138 2547 
Q 2991 2616 2845 2648 
Q 2700 2681 2553 2681 
Q 2122 2681 1889 2404 
Q 1656 2128 1656 1613 
L 1656 0 
L 538 0 
L 538 3500 
L 1656 3500 
L 1656 2925 
Q 1872 3269 2151 3426 
Q 2431 3584 2822 3584 
Q 2878 3584 2943 3579 
Q 3009 3575 3134 3559 
L 3138 2547 
z
" transform="scale(0.015625)"/>
     <path id="DejaVuSans-Bold-67" d="M 2919 594 
Q 2688 288 2409 144 
Q 2131 0 1766 0 
Q 1125 0 706 504 
Q 288 1009 288 1791 
Q 288 2575 706 3076 
Q 1125 3578 1766 3578 
Q 2131 3578 2409 3434 
Q 2688 3291 2919 2981 
L 2919 3500 
L 4044 3500 
L 4044 353 
Q 4044 -491 3511 -936 
Q 2978 -1381 1966 -1381 
Q 1638 -1381 1331 -1331 
Q 1025 -1281 716 -1178 
L 716 -306 
Q 1009 -475 1290 -558 
Q 1572 -641 1856 -641 
Q 2406 -641 2662 -400 
Q 2919 -159 2919 353 
L 2919 594 
z
M 2181 2772 
Q 1834 2772 1640 2515 
Q 1447 2259 1447 1791 
Q 1447 1309 1634 1061 
Q 1822 813 2181 813 
Q 2531 813 2725 1069 
Q 2919 1325 2919 1791 
Q 2919 2259 2725 2515 
Q 2531 2772 2181 2772 
z
" transform="scale(0.015625)"/>
     <path id="DejaVuSans-Bold-79" d="M 78 3500 
L 1197 3500 
L 2138 1125 
L 2938 3500 
L 4056 3500 
L 2584 -331 
Q 2363 -916 2067 -1148 
Q 1772 -1381 1288 -1381 
L 641 -1381 
L 641 -647 
L 991 -647 
Q 1275 -647 1404 -556 
Q 1534 -466 1606 -231 
L 1638 -134 
L 78 3500 
z
" transform="scale(0.015625)"/>
     <path id="DejaVuSans-Bold-28" d="M 2413 -844 
L 1484 -844 
Q 1006 -72 778 623 
Q 550 1319 550 2003 
Q 550 2688 779 3389 
Q 1009 4091 1484 4856 
L 2413 4856 
Q 2013 4116 1813 3408 
Q 1613 2700 1613 2009 
Q 1613 1319 1811 609 
Q 2009 -100 2413 -844 
z
" transform="scale(0.015625)"/>
     <path id="DejaVuSans-Bold-61" d="M 2106 1575 
Q 1756 1575 1579 1456 
Q 1403 1338 1403 1106 
Q 1403 894 1545 773 
Q 1688 653 1941 653 
Q 2256 653 2472 879 
Q 2688 1106 2688 1447 
L 2688 1575 
L 2106 1575 
z
M 3816 1997 
L 3816 0 
L 2688 0 
L 2688 519 
Q 2463 200 2181 54 
Q 1900 -91 1497 -91 
Q 953 -91 614 226 
Q 275 544 275 1050 
Q 275 1666 698 1953 
Q 1122 2241 2028 2241 
L 2688 2241 
L 2688 2328 
Q 2688 2594 2478 2717 
Q 2269 2841 1825 2841 
Q 1466 2841 1156 2769 
Q 847 2697 581 2553 
L 581 3406 
Q 941 3494 1303 3539 
Q 1666 3584 2028 3584 
Q 2975 3584 3395 3211 
Q 3816 2838 3816 1997 
z
" transform="scale(0.015625)"/>
     <path id="DejaVuSans-Bold-29" d="M 513 -844 
Q 913 -100 1113 609 
Q 1313 1319 1313 2009 
Q 1313 2700 1113 3408 
Q 913 4116 513 4856 
L 1441 4856 
Q 1916 4091 2145 3389 
Q 2375 2688 2375 2003 
Q 2375 1319 2147 623 
Q 1919 -72 1441 -844 
L 513 -844 
z
" transform="scale(0.015625)"/>
    </defs>
    <use xlink:href="#DejaVuSans-Bold-45"/>
    <use xlink:href="#DejaVuSans-Bold-6e" transform="translate(68.310547 0)"/>
    <use xlink:href="#DejaVuSans-Bold-65" transform="translate(139.501953 0)"/>
    <use xlink:href="#DejaVuSans-Bold-72" transform="translate(207.324219 0)"/>
    <use xlink:href="#DejaVuSans-Bold-67" transform="translate(256.640625 0)"/>
    <use xlink:href="#DejaVuSans-Bold-79" transform="translate(328.222656 0)"/>
    <use xlink:href="#DejaVuSans-Bold-20" transform="translate(393.408203 0)"/>
    <use xlink:href="#DejaVuSans-Bold-45" transform="translate(428.222656 0)"/>
    <use xlink:href="#DejaVuSans-Bold-72" transform="translate(496.533203 0)"/>
    <use xlink:href="#DejaVuSans-Bold-72" transform="translate(545.849609 0)"/>
    <use xlink:href="#DejaVuSans-Bold-6f" transform="translate(595.166016 0)"/>
    <use xlink:href="#DejaVuSans-Bold-72" transform="translate(663.867188 0)"/>
    <use xlink:href="#DejaVuSans-Bold-20" transform="translate(713.183594 0)"/>
    <use xlink:href="#DejaVuSans-Bold-28" transform="translate(747.998047 0)"/>
    <use xlink:href="#DejaVuSans-Bold-48" transform="translate(793.701172 0)"/>
    <use xlink:href="#DejaVuSans-Bold-61" transform="translate(877.392578 0)"/>
    <use xlink:href="#DejaVuSans-Bold-29" transform="translate(944.873047 0)"/>
   </g>
  </g>
 </g>
 <defs>
  <clipPath id="pb8a8e7a16a">
   <rect x="79.2" y="9.516279" width="622.8" height="391.961942"/>
  </clipPath>
 </defs>
</svg>
